<svg id="Layer_1" data-name="Layer 1" xmlns="http://www.w3.org/2000/svg" viewBox="0 0 265 421"><path d="M.86,236.3v-11A9.48,9.48,0,0,0,1,224.22c.28-6.3.39-12.62.87-18.91.57-7.56,1.29-15.12,2.23-22.64a299.1,299.1,0,0,1,5.68-31.29A278.61,278.61,0,0,1,36,81.19c8.84-16.27,19.18-31.43,32.68-44.27a133,133,0,0,1,32.4-23A110.66,110.66,0,0,1,155.22,2.16a107.82,107.82,0,0,1,32.56,6.09c15,5.35,28.36,13.38,39,25.4,13.05,14.69,17.88,31.64,13.55,51-2.22,9.9-6.3,19.09-11.21,27.89S218.92,130.13,213.9,139a118,118,0,0,0-11.56,26.61,59.34,59.34,0,0,0-2,24.18,55.17,55.17,0,0,0,10.09,24.68c5.14,7.24,11.46,13.4,17.79,19.57,6,5.88,12.15,11.7,17.86,17.89,14.2,15.35,19.5,33.63,17,54.26a83.86,83.86,0,0,1-8.23,26.88c-7,14.34-16.84,26.63-28.47,37.48A184.25,184.25,0,0,1,179,402.31c-19,9-38.85,14.88-59.91,16.19a106.54,106.54,0,0,1-34.2-3.06C69,411.23,55.22,403.52,44.14,391.2a112.93,112.93,0,0,1-18.81-29.75C17.1,343.06,12,323.71,8.15,304c-1.68-8.52-3-17.13-4.14-25.74-.93-6.79-1.56-13.64-2.08-20.48-.46-5.93-.56-11.89-.83-17.84C1.05,238.76.94,237.53.86,236.3Z"/></svg>