<svg id="Layer_1" data-name="Layer 1" xmlns="http://www.w3.org/2000/svg" viewBox="0 0 471 421"><path d="M276.65.51h11.27a2.53,2.53,0,0,0,1.54.46,73.8,73.8,0,0,1,13.08,1.81,112.71,112.71,0,0,1,25.69,9A157.87,157.87,0,0,1,348.5,23.64a275.34,275.34,0,0,1,26.63,21c3.55,3.13,7.11,6.27,10.48,9.6,3.89,3.84,7.9,7.54,11.67,11.51C402.64,71.43,407.93,77.11,413,83q6,7,11.51,14.28,6,8,11.47,16.4,5.28,8.18,9.92,16.72c3,5.46,5.65,11.06,8.15,16.76a194,194,0,0,1,10.44,30.09,184.88,184.88,0,0,1,4.6,25.48c.6,5.63.89,11.26,1.09,16.91a144.35,144.35,0,0,1-.5,15.42,151.73,151.73,0,0,1-3.28,22,133.73,133.73,0,0,1-36.34,66.66,172.08,172.08,0,0,1-41.92,30.49,252.46,252.46,0,0,1-58.25,21.67c-15.37,3.78-30.9,6.73-46.51,9.23q-16.38,2.63-32.85,4.66-13.9,1.74-27.81,3.52c-8.56,1.07-17.12,2.09-25.67,3.21-9.78,1.29-19.54,2.68-29.28,4.24-13.41,2.14-26.75,4.65-40,7.63-11.14,2.51-22.08,5.83-33.16,8.57-9.85,2.43-19.77,4.19-30,3.28a47.68,47.68,0,0,1-19.86-6.18c-9-5.16-15.88-12.46-21.58-20.95A139.51,139.51,0,0,1,3.27,347,91.78,91.78,0,0,1,.85,329.5c-.1-2.47,0-4.95-.07-7.43a87.08,87.08,0,0,1,1.73-13.66C6,292.36,13.87,279.1,27.1,269.18c7.2-5.39,15.24-9.2,23.58-12.41,9.43-3.64,19.11-6.56,28.63-9.94a121.4,121.4,0,0,0,43.38-26.46,169.83,169.83,0,0,0,26.18-32.06c9.41-14.66,16.76-30.34,23.24-46.47,6.58-16.35,12.3-33,18.58-49.49,5.77-15.13,11.95-30.08,19.76-44.31,5.62-10.24,12.12-19.84,20.61-28C242.33,9.23,255.85,3.23,271.25,1.21,273.05,1,274.9,1.1,276.65.51Z"/></svg>